<?xml version="1.0" encoding="UTF-8" standalone="no"?>
<svg
   xmlns:dc="http://purl.org/dc/elements/1.1/"
   xmlns:cc="http://creativecommons.org/ns#"
   xmlns:rdf="http://www.w3.org/1999/02/22-rdf-syntax-ns#"
   xmlns:svg="http://www.w3.org/2000/svg"
   xmlns="http://www.w3.org/2000/svg"
   xmlns:sodipodi="http://sodipodi.sourceforge.net/DTD/sodipodi-0.dtd"
   xmlns:inkscape="http://www.inkscape.org/namespaces/inkscape"
   version="1.0"
   width="258.89999"
   height="258.89969"
   viewBox="0 0 2589 2588.9969"
   preserveAspectRatio="xMidYMid meet"
   id="svg864"
   sodipodi:docname="d51human_circle_nobg.svg"
   inkscape:version="0.92.4 (5da689c313, 2019-01-14)"
   inkscape:export-filename="D:\Eigene Bilder\logos\d51human_circle.png"
   inkscape:export-xdpi="741.59998"
   inkscape:export-ydpi="741.59998">
  <metadata
     id="metadata870">
    <rdf:RDF>
      <cc:Work
         rdf:about="">
        <dc:format>image/svg+xml</dc:format>
        <dc:type
           rdf:resource="http://purl.org/dc/dcmitype/StillImage" />
        <dc:title></dc:title>
      </cc:Work>
    </rdf:RDF>
  </metadata>
  <defs
     id="defs868" />
  <sodipodi:namedview
     pagecolor="#322f37"
     bordercolor="#666666"
     borderopacity="1"
     objecttolerance="10"
     gridtolerance="10"
     guidetolerance="10"
     inkscape:pageopacity="0"
     inkscape:pageshadow="2"
     inkscape:window-width="1920"
     inkscape:window-height="1017"
     id="namedview866"
     showgrid="false"
     inkscape:zoom="2.8780488"
     inkscape:cx="-1.8061739"
     inkscape:cy="131.49152"
     inkscape:window-x="-8"
     inkscape:window-y="-8"
     inkscape:window-maximized="1"
     inkscape:current-layer="svg864"
     fit-margin-top="0"
     fit-margin-left="0"
     fit-margin-right="0"
     fit-margin-bottom="0"
     inkscape:pagecheckerboard="true" />
  <path
     style="display:inline;opacity:1;fill:#000000;fill-opacity:0.10196079;fill-rule:nonzero;stroke:none;stroke-width:3.77952766;stroke-linecap:round;stroke-linejoin:round;stroke-miterlimit:4;stroke-dasharray:none;stroke-dashoffset:0;stroke-opacity:1;paint-order:normal"
     d="M 129.44922 0 A 129.45 129.44984 0 0 0 0 129.44922 A 129.45 129.44984 0 0 0 129.44922 258.90039 A 129.45 129.44984 0 0 0 258.90039 129.44922 A 129.45 129.44984 0 0 0 129.44922 0 z M 131.79297 31.101562 A 99.999999 99.999999 0 0 1 231.79297 131.10156 A 99.999999 99.999999 0 0 1 131.79297 231.10156 A 99.999999 99.999999 0 0 1 31.792969 131.10156 A 99.999999 99.999999 0 0 1 131.79297 31.101562 z "
     transform="scale(10)"
     id="path5206" />
  <circle
     style="display:inline;opacity:1;fill:#000000;fill-opacity:0.25098041;fill-rule:nonzero;stroke:none;stroke-width:37.79527664;stroke-linecap:round;stroke-linejoin:round;stroke-miterlimit:4;stroke-dasharray:none;stroke-dashoffset:0;stroke-opacity:1;paint-order:normal"
     id="path5202"
     cx="1317.9315"
     cy="1311.0244"
     r="1000" />
  <g
     id="g5192"
     style="display:inline"
     inkscape:label="logo"
     transform="translate(482.29596,499.71099)">
    <path
       style="fill:#000000;stroke:none;stroke-width:1"
       d="M 902.26562,10.507781 C 790.40948,11.767425 651.09375,38.468719 505,89.999969 472,101.99997 422.99219,114.99997 396.99219,119.99997 c -83,16 -121.98438,63.99609 -78.98438,95.99609 11,9 12.9961,15.9961 5.9961,20.9961 -6,5 -14.01172,16.01562 -17.01172,26.01562 -4,11 -15.99219,20.98438 -26.99219,23.98438 -11,3 -20,8.01172 -20,12.01172 0,3 -11,19 -25,35 -14,16 -25,32.99218 -25,36.99218 0,4 -5.99219,13.9961 -11.99219,20.9961 -7,7 -35.00781,60.01172 -63.00781,117.01172 -27,57 -56.003906,109.98828 -64.003906,117.98828 -7,8 -16.003907,34.00781 -19.003906,58.00781 -4,43 -3.992188,43.99219 28.007812,51.99219 29,8 31.00781,10.0039 18.007812,24.0039 -9,8 -19.011718,25.01172 -22.011718,37.01172 -4,12 -11,21.99219 -15,21.99219 -11,0 -0.0039,63.99609 10.996094,70.99609 6,4 26.015624,3.00782 46.015622,-1.99218 20,-4 38.98828,-6.00782 42.98828,-3.00782 4,2 10.01172,-1.98828 12.01172,-7.98828 13,-31 26.99219,22 26.99219,100 0,64.00002 4.99219,96.00002 21.99219,135.00002 26,59 47,86.9922 65,86.9922 7,0 13.00781,6.0078 13.00781,13.0078 0,13 5,17 70,60 20,13 36.00781,32.9961 38.00781,45.9961 5,29 202.98828,234.9961 242.98828,250.9961 16,7 29.00391,15.9961 29.00391,20.9961 0,5 9,9.0039 20,9.0039 11,0 20,4.9961 20,10.9961 0,5 4.00391,8 9.00391,5 4,-3 27.99218,1.0039 51.99218,9.0039 24,7 60.00391,12.0039 79.00391,9.0039 19,-2 44.99219,-6.0078 56.99219,-8.0078 13,-1 26,-6.0039 30,-9.0039 3,-4 17,-6.9922 30,-6.9922 13,0 23.00781,-4.0039 23.00781,-9.0039 0,-5 9.9922,-12.9922 21.9922,-16.9922 12,-3 26.0117,-10 32.0117,-15 6,-5 26.9961,-23.0039 45.9961,-39.0039 19,-16 37.9961,-30 40.9961,-30 26,-1 144.9961,-145 155.9961,-190 7,-25 16.0156,-36.0078 31.0156,-38.0078 12,-2 21.9922,-6.9961 21.9922,-10.9961 0,-4 11,-13.0039 25,-19.0039 14,-6 25,-17.9922 25,-26.9922 0,-8 7,-15 15,-15 9,0 20.9922,-11 26.9922,-25 6,-14 14.0078,-25 18.0078,-25 4,0 10.0078,-13.0039 13.0078,-29.0039 3,-16 17.9922,-40.9961 31.9922,-55.9961 23,-25 25,-35.9961 25,-110.99612 0,-75 2.0078,-84.00391 18.0078,-84.00391 11,0 26.9961,-9.00391 35.9961,-19.00391 16,-18 15.9922,-20.98828 1.9922,-42.98828 -9,-13 -29.9922,-78.0039 -46.9922,-144.0039 -43,-166 -107,-363.9961 -125,-380.9961 -7,-8 -14.0039,-18.00781 -14.0039,-23.00781 0,-22 -101.9922,-109 -146.9922,-125 C 1175.0078,106.99997 1146,91.992157 1120,66.992157 1078.2812,28.085907 1000.9622,9.3963311 902.26562,10.507781 Z"
       id="path849"
       inkscape:connector-curvature="0" />
    <path
       style="fill:#623a20;stroke:none"
       d="m 715,1560 c -32,-17 -71,-42 -89,-56 -70,-59 -136,-124 -136,-133 0,-6 -4,-11 -9,-11 -5,0 -14,-13 -21,-29 -6,-16 -18,-32 -26,-35 -8,-3 -20,-19 -25,-36 -6,-16 -15,-30 -20,-30 -22,0 -117,-109 -132,-151 -9,-24 -19,-96.00003 -22,-161.00003 -4,-65 -11,-118 -16,-118 -5,0 -9,4 -9,9 0,12 -98,53 -110,46 -5,-3 0,-20 11,-38 10,-18 22,-40 25,-49 4,-10 10,-18 14,-18 5,0 12,-10 16,-22 3,-13 13,-31 22,-41 22,-25 9,-30 -33,-13 -21,9 -44,16 -51,16 -15,0 -19,-26 -5,-32 4,-2 27,-43 51,-93 59,-126 123,-221 188,-283 31,-28 59,-52 64,-52 4,0 8,-6 8,-13 0,-8 -17,-18 -37,-23 -38,-10 -38,-10 92,-53 232,-75.000001 319,-94.000001 435,-95.000001 91,-1 111,2 149,22 24,13 53,34.000001 65,47.000001 13,13 41,28 65,34 40,9 151,69 151,81 0,4 8,15 18,26 44,47 107,217 158,419 13,55 30,113 36,128 13,34 9,39 -28,28 l -29,-8 3,103 C 1491,1015 1490,1030 1476,1030 c -9,0 -24,20 -37,50 -12,28 -25,50 -30,50 -5,0 -9,6 -9,13 0,15 -44,57 -59,57 -6,0 -11,4 -11,9 0,5 -13,14 -30,21 -20,8 -30,19 -30,34 0,57 -103,176 -223,258 -83,57 -117,68 -201,68 -63,0 -82,-4 -131,-30 z"
       id="path852"
       inkscape:connector-curvature="0" />
    <path
       style="fill:#f4dcc6;stroke:none"
       d="m 722,1524 c -29,-14 -52,-32 -52,-40 0,-20 -139,-154 -160,-154 -19,0 -50,-30 -50,-49 0,-6 -7,-22 -14,-34 -10,-14 -17,-64 -22,-137 -6,-106 -5,-119.00003 16,-170.00003 31,-74 33,-75 77,-62 33,10 40,18 56,62 10,27 21,50 26,50 4,0 13,-15 18,-32 9,-29 11,-31 17,-13 20,55 37,86.00003 52,92.00003 17,6 84,-21 117,-49.00003 45,-38 87,-81 87,-89 0,-5 5,-9 11,-9 7,0 8,14 4,40 -6,36 -5,39 12,33 10,-3 23,-9 28,-13 6,-5 71,-27 145,-51 143,-45 157,-64 22,-30 -44,12 -83,21 -87,21 -6,0 13,-41 24,-50 18,-15 74,-95 104,-150 l 35,-63 11,39 c 6,21 11,43 11,48 0,5 16,42 36,83 l 37,75 L 1277,1009 c -7,155 -23,264 -43,304 -14,26 -24,31 -51,28 -6,-1 -33,19 -60,43 -26,24 -63,56 -80,71 -18,15 -33,33 -33,41 0,27 -79,54 -161,54 -61,0 -85,-5 -127,-26 z m 23,-134 c 3,-6 50,-10 105,-10 55,0 102,4 105,10 8,13 52,13 60,-1 4,-5 -1,-19 -11,-30 -15,-17 -31,-19 -154,-19 -123,0 -139,2 -154,19 -10,11 -15,25 -11,30 8,14 52,14 60,1 z"
       id="path855"
       inkscape:connector-curvature="0" />
    <path
       style="fill:#f4dcc6;stroke:none"
       d="M 376,1221 C 297,1169 240,1077 241,999.99997 v -45 L 262,1003 c 11,26 24,47 28,47 5,0 14,-32 21,-72.00003 l 13,-71 L 346,1011 c 12,57 32,131 43,163 12,33 20,61 18,62 -1,2 -15,-5 -31,-15 z"
       id="path857"
       inkscape:connector-curvature="0" />
    <path
       style="fill:#f4dcc6;stroke:none"
       d="m 1295,1213 c 8,-22 51,-177 60,-217.00003 l 6,-29 22,21 c 12,11 34,26.00003 49,33.00003 l 27,14 -21,48 c -11,26 -24,47 -29,47 -5,0 -9,5 -9,11 0,13 -41,59 -53,59 -5,0 -15,7 -23,15 -21,20 -38,19 -29,-2 z"
       id="path859"
       inkscape:connector-curvature="0" />
    <path
       style="fill:#f4dcc6;stroke:none"
       d="m 493,851.99997 c -8,-5 -4,-19 13,-47 13,-22 27,-47 31,-55 4,-8 13,-21 21,-29 13,-13 14,-11 9,15 -4,16 -9,50 -13,77 -5,39 -10,47 -28,47 -11,0 -26,-4 -33,-8 z"
       id="path861"
       inkscape:connector-curvature="0" />
  </g>
</svg>
