<?xml version="1.0" encoding="UTF-8" standalone="no"?>
<!-- Created with Inkscape (http://www.inkscape.org/) -->

<svg
   xmlns:osb="http://www.openswatchbook.org/uri/2009/osb"
   xmlns:dc="http://purl.org/dc/elements/1.1/"
   xmlns:cc="http://creativecommons.org/ns#"
   xmlns:rdf="http://www.w3.org/1999/02/22-rdf-syntax-ns#"
   xmlns:svg="http://www.w3.org/2000/svg"
   xmlns="http://www.w3.org/2000/svg"
   xmlns:xlink="http://www.w3.org/1999/xlink"
   xmlns:sodipodi="http://sodipodi.sourceforge.net/DTD/sodipodi-0.dtd"
   xmlns:inkscape="http://www.inkscape.org/namespaces/inkscape"
   width="169.10196mm"
   height="51.596798mm"
   viewBox="0 0 169.10196 51.596798"
   version="1.1"
   id="svg1520"
   inkscape:version="0.92.4 (5da689c313, 2019-01-14)"
   sodipodi:docname="Spiele.svg">
  <defs
     id="defs1514">
    <linearGradient
       inkscape:collect="always"
       id="linearGradient7342">
      <stop
         style="stop-color:#000047;stop-opacity:1;"
         offset="0"
         id="stop7338" />
      <stop
         style="stop-color:#000047;stop-opacity:0;"
         offset="1"
         id="stop7340" />
    </linearGradient>
    <linearGradient
       id="linearGradient7326"
       osb:paint="solid">
      <stop
         style="stop-color:#000047;stop-opacity:1;"
         offset="0"
         id="stop7324" />
    </linearGradient>
    <linearGradient
       id="linearGradient7320"
       osb:paint="solid">
      <stop
         style="stop-color:#000018;stop-opacity:1;"
         offset="0"
         id="stop7318" />
    </linearGradient>
    <linearGradient
       id="linearGradient7314"
       osb:paint="solid">
      <stop
         style="stop-color:#1d0047;stop-opacity:1;"
         offset="0"
         id="stop7312" />
    </linearGradient>
    <linearGradient
       id="linearGradient7308"
       osb:paint="solid">
      <stop
         style="stop-color:#220047;stop-opacity:1;"
         offset="0"
         id="stop7306" />
    </linearGradient>
    <linearGradient
       id="linearGradient5815"
       osb:paint="solid">
      <stop
         style="stop-color:#000058;stop-opacity:1;"
         offset="0"
         id="stop5813" />
    </linearGradient>
    <linearGradient
       inkscape:collect="always"
       xlink:href="#linearGradient7320"
       id="linearGradient7322"
       x1="23.133654"
       y1="61.334858"
       x2="191.23561"
       y2="61.334858"
       gradientUnits="userSpaceOnUse" />
    <radialGradient
       inkscape:collect="always"
       xlink:href="#linearGradient7342"
       id="radialGradient7344"
       cx="107.18463"
       cy="61.334858"
       fx="107.18463"
       fy="61.334858"
       r="84.550978"
       gradientTransform="matrix(1,0,0,0.30512243,0,42.620217)"
       gradientUnits="userSpaceOnUse" />
    <radialGradient
       inkscape:collect="always"
       xlink:href="#linearGradient7342"
       id="radialGradient877"
       gradientUnits="userSpaceOnUse"
       gradientTransform="matrix(1,0,0,0.30512243,0,42.620217)"
       cx="107.18463"
       cy="61.334858"
       fx="107.18463"
       fy="61.334858"
       r="84.550978" />
  </defs>
  <sodipodi:namedview
     id="base"
     pagecolor="#ffffff"
     bordercolor="#666666"
     borderopacity="1.0"
     inkscape:pageopacity="0.0"
     inkscape:pageshadow="2"
     inkscape:zoom="1.4"
     inkscape:cx="229.08971"
     inkscape:cy="141.08294"
     inkscape:document-units="mm"
     inkscape:current-layer="text7296"
     showgrid="false"
     inkscape:pagecheckerboard="true"
     fit-margin-top="0"
     fit-margin-left="0"
     fit-margin-right="0"
     fit-margin-bottom="0"
     inkscape:window-width="1920"
     inkscape:window-height="1017"
     inkscape:window-x="-8"
     inkscape:window-y="-8"
     inkscape:window-maximized="1" />
  <metadata
     id="metadata1517">
    <rdf:RDF>
      <cc:Work
         rdf:about="">
        <dc:format>image/svg+xml</dc:format>
        <dc:type
           rdf:resource="http://purl.org/dc/dcmitype/StillImage" />
        <dc:title></dc:title>
      </cc:Work>
    </rdf:RDF>
  </metadata>
  <g
     inkscape:label="Ebene 1"
     inkscape:groupmode="layer"
     id="layer1"
     transform="translate(-22.633654,-35.536458)">
    <g
       aria-label="Spiele"
       style="font-style:normal;font-variant:normal;font-weight:900;font-stretch:normal;font-size:50.79999924px;line-height:1.25;font-family:'FOT-RodinBokutoh Pro';-inkscape-font-specification:'FOT-RodinBokutoh Pro, Heavy';font-variant-ligatures:normal;font-variant-caps:normal;font-variant-numeric:normal;font-feature-settings:normal;text-align:start;letter-spacing:0px;word-spacing:0px;writing-mode:lr-tb;text-anchor:start;display:inline;fill:#000009;fill-opacity:1;stroke:#fffffb;stroke-width:1;stroke-miterlimit:4;stroke-dasharray:none;stroke-opacity:1"
       id="text2075">
      <path
         sodipodi:type="inkscape:offset"
         inkscape:radius="0"
         inkscape:original="M 39.644531 36.037109 C 30.297332 36.037109 24.962891 41.573716 24.962891 48.228516 C 24.962891 54.426116 28.316184 57.626166 34.208984 59.759766 L 39.949219 61.84375 C 43.149619 63.01215 44.0625 64.179088 44.0625 65.804688 C 44.0625 67.582688 42.895769 68.599609 39.542969 68.599609 C 36.59657 68.599609 33.141281 66.364931 31.363281 61.894531 L 23.132812 67.482422 C 25.520412 74.137221 31.211751 77.998047 39.59375 77.998047 C 49.70295 77.998047 55.291016 73.171155 55.291016 64.535156 C 55.291016 58.337556 51.328291 54.477256 45.587891 52.597656 L 39.033203 50.462891 C 36.747204 49.700891 35.580078 48.736741 35.580078 47.619141 C 35.580078 46.095141 36.494763 45.027344 40.101562 45.027344 C 42.692363 45.027344 45.384372 46.805628 46.451172 49.548828 L 54.324219 43.910156 C 51.936619 38.728556 46.959731 36.037109 39.644531 36.037109 z M 96.789062 37.205078 L 96.789062 45.740234 L 107.66016 45.740234 L 107.66016 37.205078 L 96.789062 37.205078 z M 146.65039 37.205078 L 146.65039 76.828125 L 157.41992 76.828125 L 157.41992 37.205078 L 146.65039 37.205078 z M 78.730469 47.771484 C 75.936469 47.771484 72.330416 49.042013 71.416016 51.632812 L 71.416016 48.482422 L 61.865234 48.482422 L 61.865234 86.632812 L 72.431641 86.632812 L 72.431641 75.660156 C 73.854041 76.828556 76.54605 77.541016 78.78125 77.541016 C 86.19805 77.541016 91.734375 72.409868 91.734375 62.605469 C 91.734375 52.953469 86.350469 47.771484 78.730469 47.771484 z M 127.30859 47.771484 C 117.75819 47.771484 112.72852 54.629869 112.72852 62.605469 C 112.72852 71.698668 118.62172 77.541016 127.51172 77.541016 C 134.06492 77.541016 137.46742 75.913572 141.07422 71.951172 L 136.0957 66.007812 C 134.2161 68.192212 131.32142 69.310547 128.32422 69.310547 C 125.37782 69.310547 122.93968 68.141413 122.33008 66.007812 L 141.27734 63.722656 C 141.32814 63.214656 141.32813 62.757981 141.32812 62.300781 C 141.32812 53.461581 135.94459 47.771484 127.30859 47.771484 z M 177.21484 47.771484 C 167.66444 47.771484 162.63477 54.629869 162.63477 62.605469 C 162.63477 71.698668 168.52797 77.541016 177.41797 77.541016 C 183.97117 77.541016 187.37562 75.913572 190.98242 71.951172 L 186.00391 66.007812 C 184.12431 68.192212 181.22767 69.310547 178.23047 69.310547 C 175.28407 69.310547 172.84593 68.141413 172.23633 66.007812 L 191.18555 63.722656 C 191.23635 63.214656 191.23633 62.757981 191.23633 62.300781 C 191.23633 53.461581 185.85084 47.771484 177.21484 47.771484 z M 96.941406 48.482422 L 96.941406 76.828125 L 107.50781 76.828125 L 107.50781 48.482422 L 96.941406 48.482422 z M 127.20703 55.898438 C 129.69623 55.898438 131.21862 56.915434 131.57422 58.490234 L 122.22852 59.708984 C 122.68572 57.372184 124.46383 55.898438 127.20703 55.898438 z M 177.11328 55.898438 C 179.60248 55.898438 181.12682 56.915434 181.48242 58.490234 L 172.13477 59.708984 C 172.59197 57.372184 174.37008 55.898438 177.11328 55.898438 z M 76.240234 56.101562 C 79.389834 56.101562 81.015625 58.338269 81.015625 62.605469 C 81.015625 67.075869 79.084997 69.412109 76.341797 69.412109 C 74.004997 69.412109 72.584116 67.734919 72.228516 66.261719 L 72.228516 60.978516 C 72.228516 58.082916 73.954234 56.101562 76.240234 56.101562 z "
         style="font-style:normal;font-variant:normal;font-weight:900;font-stretch:normal;font-size:50.79999924px;font-family:'FOT-RodinBokutoh Pro';-inkscape-font-specification:'FOT-RodinBokutoh Pro, Heavy';font-variant-ligatures:normal;font-variant-caps:normal;font-variant-numeric:normal;font-feature-settings:normal;text-align:start;writing-mode:lr-tb;text-anchor:start;fill:#000009;fill-opacity:1;stroke:#fffffb;stroke-width:1;stroke-miterlimit:4;stroke-dasharray:none;stroke-opacity:1"
         id="path891"
         d="m 39.644531,36.037109 c -9.347199,0 -14.68164,5.536607 -14.68164,12.191407 0,6.1976 3.353293,9.39765 9.246093,11.53125 l 5.740235,2.083984 c 3.2004,1.1684 4.113281,2.335338 4.113281,3.960938 0,1.778 -1.166731,2.794921 -4.519531,2.794921 -2.946399,0 -6.401688,-2.234678 -8.179688,-6.705078 l -8.230469,5.587891 c 2.3876,6.654799 8.078939,10.515625 16.460938,10.515625 10.1092,0 15.697266,-4.826892 15.697266,-13.462891 0,-6.1976 -3.962725,-10.0579 -9.703125,-11.9375 l -6.554688,-2.134765 c -2.285999,-0.762 -3.453125,-1.72615 -3.453125,-2.84375 0,-1.524 0.914685,-2.591797 4.521484,-2.591797 2.590801,0 5.28281,1.778284 6.34961,4.521484 l 7.873047,-5.638672 c -2.3876,-5.1816 -7.364488,-7.873047 -14.679688,-7.873047 z m 57.144531,1.167969 v 8.535156 h 10.871098 v -8.535156 z m 49.861328,0 v 39.623047 h 10.76953 V 37.205078 Z M 78.730469,47.771484 c -2.794,0 -6.400053,1.270529 -7.314453,3.861328 v -3.15039 h -9.550782 v 38.15039 H 72.431641 V 75.660156 c 1.4224,1.1684 4.114409,1.88086 6.349609,1.88086 7.4168,0 12.953125,-5.131148 12.953125,-14.935547 0,-9.652 -5.383906,-14.833985 -13.003906,-14.833985 z m 48.578121,0 c -9.5504,0 -14.58007,6.858385 -14.58007,14.833985 0,9.093199 5.8932,14.935547 14.7832,14.935547 6.5532,0 9.9557,-1.627444 13.5625,-5.589844 l -4.97852,-5.94336 c -1.8796,2.1844 -4.77428,3.302735 -7.77148,3.302735 -2.9464,0 -5.38454,-1.169134 -5.99414,-3.302735 l 18.94726,-2.285156 c 0.0508,-0.508 0.0508,-0.964675 0.0508,-1.421875 0,-8.8392 -5.38353,-14.529297 -14.01953,-14.529297 z m 49.90625,0 c -9.5504,0 -14.58007,6.858385 -14.58007,14.833985 0,9.093199 5.8932,14.935547 14.7832,14.935547 6.5532,0 9.95765,-1.627444 13.56445,-5.589844 l -4.97851,-5.94336 c -1.8796,2.1844 -4.77624,3.302735 -7.77344,3.302735 -2.9464,0 -5.38454,-1.169134 -5.99414,-3.302735 l 18.94922,-2.285156 c 0.0508,-0.508 0.0508,-0.964675 0.0508,-1.421875 0,-8.8392 -5.38549,-14.529297 -14.02149,-14.529297 z M 96.941406,48.482422 V 76.828125 H 107.50781 V 48.482422 Z m 30.265624,7.416016 c 2.4892,0 4.01159,1.016996 4.36719,2.591796 l -9.3457,1.21875 c 0.4572,-2.3368 2.23531,-3.810546 4.97851,-3.810546 z m 49.90625,0 c 2.4892,0 4.01354,1.016996 4.36914,2.591796 l -9.34765,1.21875 c 0.4572,-2.3368 2.23531,-3.810546 4.97851,-3.810546 z M 76.240234,56.101562 c 3.1496,0 4.775391,2.236707 4.775391,6.503907 0,4.4704 -1.930628,6.80664 -4.673828,6.80664 -2.3368,0 -3.757681,-1.67719 -4.113281,-3.15039 v -5.283203 c 0,-2.8956 1.725718,-4.876954 4.011718,-4.876954 z" />
    </g>
    <g
       aria-label="Spiele"
       style="font-style:normal;font-variant:normal;font-weight:900;font-stretch:normal;font-size:50.79999924px;line-height:1.25;font-family:'FOT-RodinBokutoh Pro';-inkscape-font-specification:'FOT-RodinBokutoh Pro, Heavy';font-variant-ligatures:normal;font-variant-caps:normal;font-variant-numeric:normal;font-feature-settings:normal;text-align:start;letter-spacing:0px;word-spacing:0px;writing-mode:lr-tb;text-anchor:start;display:inline;fill:url(#radialGradient7344);fill-opacity:1;stroke:#fffffb;stroke-width:1;stroke-miterlimit:4;stroke-dasharray:none;stroke-opacity:1"
       id="text7296">
      <path
         sodipodi:type="inkscape:offset"
         inkscape:radius="0"
         inkscape:original="M 39.644531 36.037109 C 30.297332 36.037109 24.962891 41.573716 24.962891 48.228516 C 24.962891 54.426116 28.316184 57.626166 34.208984 59.759766 L 39.949219 61.84375 C 43.149619 63.01215 44.0625 64.179088 44.0625 65.804688 C 44.0625 67.582688 42.895769 68.599609 39.542969 68.599609 C 36.59657 68.599609 33.141281 66.364931 31.363281 61.894531 L 23.132812 67.482422 C 25.520412 74.137221 31.211751 77.998047 39.59375 77.998047 C 49.70295 77.998047 55.291016 73.171155 55.291016 64.535156 C 55.291016 58.337556 51.328291 54.477256 45.587891 52.597656 L 39.033203 50.462891 C 36.747204 49.700891 35.580078 48.736741 35.580078 47.619141 C 35.580078 46.095141 36.494763 45.027344 40.101562 45.027344 C 42.692363 45.027344 45.384372 46.805628 46.451172 49.548828 L 54.324219 43.910156 C 51.936619 38.728556 46.959731 36.037109 39.644531 36.037109 z M 96.789062 37.205078 L 96.789062 45.740234 L 107.66016 45.740234 L 107.66016 37.205078 L 96.789062 37.205078 z M 146.65039 37.205078 L 146.65039 76.828125 L 157.41992 76.828125 L 157.41992 37.205078 L 146.65039 37.205078 z M 78.730469 47.771484 C 75.936469 47.771484 72.330416 49.042013 71.416016 51.632812 L 71.416016 48.482422 L 61.865234 48.482422 L 61.865234 86.632812 L 72.431641 86.632812 L 72.431641 75.660156 C 73.854041 76.828556 76.54605 77.541016 78.78125 77.541016 C 86.19805 77.541016 91.734375 72.409868 91.734375 62.605469 C 91.734375 52.953469 86.350469 47.771484 78.730469 47.771484 z M 127.30859 47.771484 C 117.75819 47.771484 112.72852 54.629869 112.72852 62.605469 C 112.72852 71.698668 118.62172 77.541016 127.51172 77.541016 C 134.06492 77.541016 137.46742 75.913572 141.07422 71.951172 L 136.0957 66.007812 C 134.2161 68.192212 131.32142 69.310547 128.32422 69.310547 C 125.37782 69.310547 122.93968 68.141413 122.33008 66.007812 L 141.27734 63.722656 C 141.32814 63.214656 141.32813 62.757981 141.32812 62.300781 C 141.32812 53.461581 135.94459 47.771484 127.30859 47.771484 z M 177.21484 47.771484 C 167.66444 47.771484 162.63477 54.629869 162.63477 62.605469 C 162.63477 71.698668 168.52797 77.541016 177.41797 77.541016 C 183.97117 77.541016 187.37562 75.913572 190.98242 71.951172 L 186.00391 66.007812 C 184.12431 68.192212 181.22767 69.310547 178.23047 69.310547 C 175.28407 69.310547 172.84593 68.141413 172.23633 66.007812 L 191.18555 63.722656 C 191.23635 63.214656 191.23633 62.757981 191.23633 62.300781 C 191.23633 53.461581 185.85084 47.771484 177.21484 47.771484 z M 96.941406 48.482422 L 96.941406 76.828125 L 107.50781 76.828125 L 107.50781 48.482422 L 96.941406 48.482422 z M 127.20703 55.898438 C 129.69623 55.898438 131.21862 56.915434 131.57422 58.490234 L 122.22852 59.708984 C 122.68572 57.372184 124.46383 55.898438 127.20703 55.898438 z M 177.11328 55.898438 C 179.60248 55.898438 181.12682 56.915434 181.48242 58.490234 L 172.13477 59.708984 C 172.59197 57.372184 174.37008 55.898438 177.11328 55.898438 z M 76.240234 56.101562 C 79.389834 56.101562 81.015625 58.338269 81.015625 62.605469 C 81.015625 67.075869 79.084997 69.412109 76.341797 69.412109 C 74.004997 69.412109 72.584116 67.734919 72.228516 66.261719 L 72.228516 60.978516 C 72.228516 58.082916 73.954234 56.101562 76.240234 56.101562 z "
         style="font-style:normal;font-variant:normal;font-weight:900;font-stretch:normal;font-size:50.79999924px;font-family:'FOT-RodinBokutoh Pro';-inkscape-font-specification:'FOT-RodinBokutoh Pro, Heavy';font-variant-ligatures:normal;font-variant-caps:normal;font-variant-numeric:normal;font-feature-settings:normal;text-align:start;writing-mode:lr-tb;text-anchor:start;fill:url(#radialGradient877);fill-opacity:1;stroke:#fffffb;stroke-width:1;stroke-miterlimit:4;stroke-dasharray:none;stroke-opacity:1"
         id="path873"
         d="m 39.644531,36.037109 c -9.347199,0 -14.68164,5.536607 -14.68164,12.191407 0,6.1976 3.353293,9.39765 9.246093,11.53125 l 5.740235,2.083984 c 3.2004,1.1684 4.113281,2.335338 4.113281,3.960938 0,1.778 -1.166731,2.794921 -4.519531,2.794921 -2.946399,0 -6.401688,-2.234678 -8.179688,-6.705078 l -8.230469,5.587891 c 2.3876,6.654799 8.078939,10.515625 16.460938,10.515625 10.1092,0 15.697266,-4.826892 15.697266,-13.462891 0,-6.1976 -3.962725,-10.0579 -9.703125,-11.9375 l -6.554688,-2.134765 c -2.285999,-0.762 -3.453125,-1.72615 -3.453125,-2.84375 0,-1.524 0.914685,-2.591797 4.521484,-2.591797 2.590801,0 5.28281,1.778284 6.34961,4.521484 l 7.873047,-5.638672 c -2.3876,-5.1816 -7.364488,-7.873047 -14.679688,-7.873047 z m 57.144531,1.167969 v 8.535156 h 10.871098 v -8.535156 z m 49.861328,0 v 39.623047 h 10.76953 V 37.205078 Z M 78.730469,47.771484 c -2.794,0 -6.400053,1.270529 -7.314453,3.861328 v -3.15039 h -9.550782 v 38.15039 H 72.431641 V 75.660156 c 1.4224,1.1684 4.114409,1.88086 6.349609,1.88086 7.4168,0 12.953125,-5.131148 12.953125,-14.935547 0,-9.652 -5.383906,-14.833985 -13.003906,-14.833985 z m 48.578121,0 c -9.5504,0 -14.58007,6.858385 -14.58007,14.833985 0,9.093199 5.8932,14.935547 14.7832,14.935547 6.5532,0 9.9557,-1.627444 13.5625,-5.589844 l -4.97852,-5.94336 c -1.8796,2.1844 -4.77428,3.302735 -7.77148,3.302735 -2.9464,0 -5.38454,-1.169134 -5.99414,-3.302735 l 18.94726,-2.285156 c 0.0508,-0.508 0.0508,-0.964675 0.0508,-1.421875 0,-8.8392 -5.38353,-14.529297 -14.01953,-14.529297 z m 49.90625,0 c -9.5504,0 -14.58007,6.858385 -14.58007,14.833985 0,9.093199 5.8932,14.935547 14.7832,14.935547 6.5532,0 9.95765,-1.627444 13.56445,-5.589844 l -4.97851,-5.94336 c -1.8796,2.1844 -4.77624,3.302735 -7.77344,3.302735 -2.9464,0 -5.38454,-1.169134 -5.99414,-3.302735 l 18.94922,-2.285156 c 0.0508,-0.508 0.0508,-0.964675 0.0508,-1.421875 0,-8.8392 -5.38549,-14.529297 -14.02149,-14.529297 z M 96.941406,48.482422 V 76.828125 H 107.50781 V 48.482422 Z m 30.265624,7.416016 c 2.4892,0 4.01159,1.016996 4.36719,2.591796 l -9.3457,1.21875 c 0.4572,-2.3368 2.23531,-3.810546 4.97851,-3.810546 z m 49.90625,0 c 2.4892,0 4.01354,1.016996 4.36914,2.591796 l -9.34765,1.21875 c 0.4572,-2.3368 2.23531,-3.810546 4.97851,-3.810546 z M 76.240234,56.101562 c 3.1496,0 4.775391,2.236707 4.775391,6.503907 0,4.4704 -1.930628,6.80664 -4.673828,6.80664 -2.3368,0 -3.757681,-1.67719 -4.113281,-3.15039 v -5.283203 c 0,-2.8956 1.725718,-4.876954 4.011718,-4.876954 z" />
    </g>
  </g>
</svg>
